<svg xmlns="http://www.w3.org/2000/svg" viewBox="0 0 600 600" width="600" height="600" role="img" aria-label="@vineandsunset — photo placeholder">
  <defs>
    <linearGradient id="g_instagram_1" x1="0%" y1="0%" x2="100%" y2="100%">
      <stop offset="0%" stop-color="#0F4C4C"/>
      <stop offset="100%" stop-color="#6B7C4B"/>
    </linearGradient>
  </defs>
  <rect width="600" height="600" fill="url(#g_instagram_1)"/>
  <g transform="translate(158,158) rotate(11)" opacity="0.07"><path d="M0,0 C 26,-43 43,-13 43,0 C 43,13 26,43 0,0 Z" fill="#F8F3EC"/></g><g transform="translate(461,320) rotate(185)" opacity="0.07"><path d="M0,0 C 34,-56 56,-17 56,0 C 56,17 34,56 0,0 Z" fill="#F8F3EC"/></g><g transform="translate(593,567) rotate(272)" opacity="0.07"><path d="M0,0 C 26,-44 44,-13 44,0 C 44,13 26,44 0,0 Z" fill="#F8F3EC"/></g><g transform="translate(412,296) rotate(136)" opacity="0.07"><path d="M0,0 C 53,-89 89,-27 89,0 C 89,27 53,89 0,0 Z" fill="#F8F3EC"/></g><g transform="translate(325,412) rotate(68)" opacity="0.07"><path d="M0,0 C 60,-100 100,-30 100,0 C 100,30 60,100 0,0 Z" fill="#F8F3EC"/></g><g transform="translate(584,49) rotate(34)" opacity="0.07"><path d="M0,0 C 62,-103 103,-31 103,0 C 103,31 62,103 0,0 Z" fill="#F8F3EC"/></g><g transform="translate(186,532) rotate(17)" opacity="0.07"><path d="M0,0 C 52,-87 87,-26 87,0 C 87,26 52,87 0,0 Z" fill="#F8F3EC"/></g>
  <circle cx="300" cy="270" r="24" fill="none" stroke="#F8F3EC" stroke-width="2" opacity="0.55"/>
  <path d="M 300 257 C 286 241, 314 241, 300 257 Z" fill="#F8F3EC" opacity="0.55"/>
  <text x="50%" y="314" text-anchor="middle" font-family="Georgia, 'Times New Roman', serif" font-size="27" fill="#F8F3EC" opacity="0.85" letter-spacing="1">@vineandsunset</text>
  <text x="50%" y="349" text-anchor="middle" font-family="Arial, sans-serif" font-size="11" fill="#F8F3EC" opacity="0.55" letter-spacing="2">PHOTO PLACEHOLDER · 600×600</text>
</svg>