<svg xmlns="http://www.w3.org/2000/svg" viewBox="0 0 1200 630" width="1200" height="630" role="img" aria-label="Vine & Sunset — photo placeholder">
  <defs>
    <linearGradient id="g_og_default" x1="0%" y1="0%" x2="100%" y2="100%">
      <stop offset="0%" stop-color="#0F4C4C"/>
      <stop offset="100%" stop-color="#C96A3D"/>
    </linearGradient>
  </defs>
  <rect width="1200" height="630" fill="url(#g_og_default)"/>
  <g transform="translate(104,54) rotate(94)" opacity="0.07"><path d="M0,0 C 37,-62 62,-19 62,0 C 62,19 37,62 0,0 Z" fill="#F8F3EC"/></g><g transform="translate(758,163) rotate(227)" opacity="0.07"><path d="M0,0 C 27,-45 45,-14 45,0 C 45,14 27,45 0,0 Z" fill="#F8F3EC"/></g><g transform="translate(800,415) rotate(293)" opacity="0.07"><path d="M0,0 C 44,-73 73,-22 73,0 C 73,22 44,73 0,0 Z" fill="#F8F3EC"/></g><g transform="translate(951,210) rotate(146)" opacity="0.07"><path d="M0,0 C 48,-80 80,-24 80,0 C 80,24 48,80 0,0 Z" fill="#F8F3EC"/></g><g transform="translate(960,499) rotate(73)" opacity="0.07"><path d="M0,0 C 49,-82 82,-25 82,0 C 82,25 49,82 0,0 Z" fill="#F8F3EC"/></g><g transform="translate(56,378) rotate(216)" opacity="0.07"><path d="M0,0 C 49,-82 82,-25 82,0 C 82,25 49,82 0,0 Z" fill="#F8F3EC"/></g><g transform="translate(75,126) rotate(288)" opacity="0.07"><path d="M0,0 C 30,-50 50,-15 50,0 C 50,15 30,50 0,0 Z" fill="#F8F3EC"/></g>
  <circle cx="600" cy="284" r="25" fill="none" stroke="#F8F3EC" stroke-width="2" opacity="0.55"/>
  <path d="M 600 270 C 586 253, 614 253, 600 270 Z" fill="#F8F3EC" opacity="0.55"/>
  <text x="50%" y="329" text-anchor="middle" font-family="Georgia, 'Times New Roman', serif" font-size="28" fill="#F8F3EC" opacity="0.85" letter-spacing="1">Vine & Sunset</text>
  <text x="50%" y="365" text-anchor="middle" font-family="Arial, sans-serif" font-size="12" fill="#F8F3EC" opacity="0.55" letter-spacing="2">PHOTO PLACEHOLDER · 1200×630</text>
</svg>